<svg width="24" height="24" viewBox="0 0 24 24" fill="none" xmlns="http://www.w3.org/2000/svg">
<path d="M14.5399 2.26001C13.5099 2.26001 12.6799 3.09 12.6799 4.12V8.76001C12.6799 9.79001 13.5099 10.62 14.5399 10.62C15.5699 10.62 16.3999 9.79001 16.3999 8.76001V4.12C16.3999 3.09 15.5699 2.26001 14.5399 2.26001Z" stroke="#171717" stroke-width="1.5" stroke-miterlimit="10" stroke-linecap="round" stroke-linejoin="round"/>
<path d="M18.6201 10.62H20.1901C21.0601 10.62 21.7601 9.91996 21.7601 9.04996C21.7601 8.17996 21.0601 7.47998 20.1901 7.47998C19.3201 7.47998 18.6201 8.17996 18.6201 9.04996V10.62Z" stroke="#171717" stroke-width="1.5" stroke-miterlimit="10" stroke-linecap="round" stroke-linejoin="round"/>
<path d="M3.86 7.37012C2.83 7.37012 2 8.20013 2 9.23013C2 10.2601 2.83 11.0901 3.86 11.0901H8.5C9.53 11.0901 10.36 10.2601 10.36 9.23013C10.36 8.20013 9.53 7.37012 8.5 7.37012H7.75" stroke="#171717" stroke-width="1.5" stroke-miterlimit="10" stroke-linecap="round" stroke-linejoin="round"/>
<path d="M10.36 5.13V3.56C10.36 2.69 9.65996 1.98999 8.78996 1.98999C7.91996 1.98999 7.21997 2.69 7.21997 3.56C7.21997 4.43 7.91996 5.13 8.78996 5.13H10.36Z" stroke="#28C923" stroke-width="1.5" stroke-miterlimit="10" stroke-linecap="round" stroke-linejoin="round"/>
<path d="M9.43005 21.7699C10.4601 21.7699 11.2901 20.9399 11.2901 19.9099V15.2699C11.2901 14.2399 10.4601 13.4099 9.43005 13.4099C8.40005 13.4099 7.57007 14.2399 7.57007 15.2699V19.9099C7.57007 20.9299 8.40005 21.7699 9.43005 21.7699Z" stroke="#171717" stroke-width="1.5" stroke-miterlimit="10" stroke-linecap="round" stroke-linejoin="round"/>
<path d="M5.35997 13.4099H3.78996C2.91996 13.4099 2.21997 14.1099 2.21997 14.9799C2.21997 15.8499 2.91996 16.5499 3.78996 16.5499C4.65996 16.5499 5.35997 15.8499 5.35997 14.9799V13.4099Z" stroke="#171717" stroke-width="1.5" stroke-miterlimit="10" stroke-linecap="round" stroke-linejoin="round"/>
<path d="M21.9701 14.7999C21.9701 13.7699 21.1401 12.9399 20.1101 12.9399H15.4701C14.4401 12.9399 13.6101 13.7699 13.6101 14.7999C13.6101 15.8299 14.4401 16.6599 15.4701 16.6599H20.1101C21.1401 16.6599 21.9701 15.8299 21.9701 14.7999Z" stroke="#171717" stroke-width="1.5" stroke-miterlimit="10" stroke-linecap="round" stroke-linejoin="round"/>
<path d="M13.6101 18.8401V20.4101C13.6101 21.2801 14.3101 21.9801 15.1801 21.9801C16.0501 21.9801 16.7501 21.2801 16.7501 20.4101C16.7501 19.5401 16.0501 18.8401 15.1801 18.8401H13.6101Z" stroke="#12E134" stroke-width="1.5" stroke-miterlimit="10" stroke-linecap="round" stroke-linejoin="round"/>
</svg>
