<svg width="24" height="24" viewBox="0 0 24 24" fill="none" xmlns="http://www.w3.org/2000/svg">
<path d="M23.006 17.91C23.026 18.66 22.826 19.37 22.466 19.98C22.266 20.34 21.996 20.6701 21.696 20.9401C21.006 21.5801 20.096 21.9701 19.086 22.0001C17.626 22.0301 16.336 21.2801 15.626 20.1301C15.246 19.5401 15.016 18.8301 15.006 18.0801C14.976 16.8201 15.536 15.6801 16.436 14.9301C17.116 14.3701 17.976 14.0201 18.916 14.0001C21.126 13.9501 22.956 15.7 23.006 17.91Z" stroke="#EEECEC" stroke-width="1.5" stroke-miterlimit="10" stroke-linecap="round" stroke-linejoin="round"/>
<path d="M17.4463 18.03L18.4563 18.99L20.5463 16.97" stroke="#EEECEC" stroke-width="1.5" stroke-linecap="round" stroke-linejoin="round"/>
<g opacity="0.4">
<path d="M3.17578 7.43994L12.0058 12.5499L20.7758 7.46991" stroke="#EEECEC" stroke-width="1.5" stroke-linecap="round" stroke-linejoin="round"/>
<path d="M12.0059 21.61V12.54" stroke="#EEECEC" stroke-width="1.5" stroke-linecap="round" stroke-linejoin="round"/>
<path d="M21.616 9.17V14.83C21.616 14.88 21.616 14.92 21.606 14.97C20.906 14.36 20.006 14 19.006 14C18.066 14 17.196 14.33 16.506 14.88C15.586 15.61 15.006 16.74 15.006 18C15.006 18.75 15.216 19.46 15.586 20.06C15.676 20.22 15.786 20.37 15.906 20.51L14.076 21.52C12.936 22.16 11.076 22.16 9.93597 21.52L4.59598 18.56C3.38598 17.89 2.396 16.21 2.396 14.83V9.17C2.396 7.79 3.38598 6.11002 4.59598 5.44002L9.93597 2.48C11.076 1.84 12.936 1.84 14.076 2.48L19.416 5.44002C20.626 6.11002 21.616 7.79 21.616 9.17Z" stroke="#EEECEC" stroke-width="1.5" stroke-linecap="round" stroke-linejoin="round"/>
</g>
</svg>
